<?xml version="1.0" encoding="utf-8" standalone="no"?>
<!DOCTYPE svg PUBLIC "-//W3C//DTD SVG 1.1//EN"
  "http://www.w3.org/Graphics/SVG/1.1/DTD/svg11.dtd">
<svg xmlns:xlink="http://www.w3.org/1999/xlink" width="1146.711892pt" height="281.399943pt" viewBox="0 0 1146.711892 281.399943" xmlns="http://www.w3.org/2000/svg" version="1.1">
 <metadata>
  <rdf:RDF xmlns:dc="http://purl.org/dc/elements/1.1/" xmlns:cc="http://creativecommons.org/ns#" xmlns:rdf="http://www.w3.org/1999/02/22-rdf-syntax-ns#">
   <cc:Work>
    <dc:type rdf:resource="http://purl.org/dc/dcmitype/StillImage"/>
    <dc:date>2026-09-16T12:23:48.142275</dc:date>
    <dc:format>image/svg+xml</dc:format>
    <dc:creator>
     <cc:Agent>
      <dc:title>Matplotlib v3.10.9, https://matplotlib.org/</dc:title>
     </cc:Agent>
    </dc:creator>
   </cc:Work>
  </rdf:RDF>
 </metadata>
 <defs>
  <style type="text/css">*{stroke-linejoin: round; stroke-linecap: butt}</style>
 </defs>
 <g id="figure_1">
  <g id="patch_1">
   <path d="M 0 281.399943 
L 1146.711892 281.399943 
L 1146.711892 0 
L 0 0 
z
" style="fill: #ffffff"/>
  </g>
  <g id="axes_1">
   <g id="patch_2">
    <path d="M 44.695 238.440256 
L 374.608493 238.440256 
L 374.608493 20.798437 
L 44.695 20.798437 
z
" style="fill: #ffffff"/>
   </g>
   <g id="matplotlib.axis_1">
    <g id="xtick_1">
     <g id="line2d_1">
      <path d="M 59.691068 238.440256 
L 59.691068 20.798437 
" clip-path="url(#p9641202daf)" style="fill: none; stroke: #cccccc; stroke-linecap: round"/>
     </g>
     <g id="text_1">
      <!-- 0 -->
      <g style="fill: #262626" transform="translate(56.191693 256.298537) scale(0.11 -0.11)">
       <defs>
        <path id="DejaVuSans-30" d="M 2034 4250 
Q 1547 4250 1301 3770 
Q 1056 3291 1056 2328 
Q 1056 1369 1301 889 
Q 1547 409 2034 409 
Q 2525 409 2770 889 
Q 3016 1369 3016 2328 
Q 3016 3291 2770 3770 
Q 2525 4250 2034 4250 
z
M 2034 4750 
Q 2819 4750 3233 4129 
Q 3647 3509 3647 2328 
Q 3647 1150 3233 529 
Q 2819 -91 2034 -91 
Q 1250 -91 836 529 
Q 422 1150 422 2328 
Q 422 3509 836 4129 
Q 1250 4750 2034 4750 
z
" transform="scale(0.015625)"/>
       </defs>
       <use xlink:href="#DejaVuSans-30"/>
      </g>
     </g>
    </g>
    <g id="xtick_2">
     <g id="line2d_2">
      <path d="M 108.06548 238.440256 
L 108.06548 20.798437 
" clip-path="url(#p9641202daf)" style="fill: none; stroke: #cccccc; stroke-linecap: round"/>
     </g>
     <g id="text_2">
      <!-- 5 -->
      <g style="fill: #262626" transform="translate(104.566105 256.298537) scale(0.11 -0.11)">
       <defs>
        <path id="DejaVuSans-35" d="M 691 4666 
L 3169 4666 
L 3169 4134 
L 1269 4134 
L 1269 2991 
Q 1406 3038 1543 3061 
Q 1681 3084 1819 3084 
Q 2600 3084 3056 2656 
Q 3513 2228 3513 1497 
Q 3513 744 3044 326 
Q 2575 -91 1722 -91 
Q 1428 -91 1123 -41 
Q 819 9 494 109 
L 494 744 
Q 775 591 1075 516 
Q 1375 441 1709 441 
Q 2250 441 2565 725 
Q 2881 1009 2881 1497 
Q 2881 1984 2565 2268 
Q 2250 2553 1709 2553 
Q 1456 2553 1204 2497 
Q 953 2441 691 2322 
L 691 4666 
z
" transform="scale(0.015625)"/>
       </defs>
       <use xlink:href="#DejaVuSans-35"/>
      </g>
     </g>
    </g>
    <g id="xtick_3">
     <g id="line2d_3">
      <path d="M 156.439893 238.440256 
L 156.439893 20.798437 
" clip-path="url(#p9641202daf)" style="fill: none; stroke: #cccccc; stroke-linecap: round"/>
     </g>
     <g id="text_3">
      <!-- 10 -->
      <g style="fill: #262626" transform="translate(149.441143 256.298537) scale(0.11 -0.11)">
       <defs>
        <path id="DejaVuSans-31" d="M 794 531 
L 1825 531 
L 1825 4091 
L 703 3866 
L 703 4441 
L 1819 4666 
L 2450 4666 
L 2450 531 
L 3481 531 
L 3481 0 
L 794 0 
L 794 531 
z
" transform="scale(0.015625)"/>
       </defs>
       <use xlink:href="#DejaVuSans-31"/>
       <use xlink:href="#DejaVuSans-30" transform="translate(63.623047 0)"/>
      </g>
     </g>
    </g>
    <g id="xtick_4">
     <g id="line2d_4">
      <path d="M 204.814305 238.440256 
L 204.814305 20.798437 
" clip-path="url(#p9641202daf)" style="fill: none; stroke: #cccccc; stroke-linecap: round"/>
     </g>
     <g id="text_4">
      <!-- 15 -->
      <g style="fill: #262626" transform="translate(197.815555 256.298537) scale(0.11 -0.11)">
       <use xlink:href="#DejaVuSans-31"/>
       <use xlink:href="#DejaVuSans-35" transform="translate(63.623047 0)"/>
      </g>
     </g>
    </g>
    <g id="xtick_5">
     <g id="line2d_5">
      <path d="M 253.188717 238.440256 
L 253.188717 20.798437 
" clip-path="url(#p9641202daf)" style="fill: none; stroke: #cccccc; stroke-linecap: round"/>
     </g>
     <g id="text_5">
      <!-- 20 -->
      <g style="fill: #262626" transform="translate(246.189967 256.298537) scale(0.11 -0.11)">
       <defs>
        <path id="DejaVuSans-32" d="M 1228 531 
L 3431 531 
L 3431 0 
L 469 0 
L 469 531 
Q 828 903 1448 1529 
Q 2069 2156 2228 2338 
Q 2531 2678 2651 2914 
Q 2772 3150 2772 3378 
Q 2772 3750 2511 3984 
Q 2250 4219 1831 4219 
Q 1534 4219 1204 4116 
Q 875 4013 500 3803 
L 500 4441 
Q 881 4594 1212 4672 
Q 1544 4750 1819 4750 
Q 2544 4750 2975 4387 
Q 3406 4025 3406 3419 
Q 3406 3131 3298 2873 
Q 3191 2616 2906 2266 
Q 2828 2175 2409 1742 
Q 1991 1309 1228 531 
z
" transform="scale(0.015625)"/>
       </defs>
       <use xlink:href="#DejaVuSans-32"/>
       <use xlink:href="#DejaVuSans-30" transform="translate(63.623047 0)"/>
      </g>
     </g>
    </g>
    <g id="xtick_6">
     <g id="line2d_6">
      <path d="M 301.56313 238.440256 
L 301.56313 20.798437 
" clip-path="url(#p9641202daf)" style="fill: none; stroke: #cccccc; stroke-linecap: round"/>
     </g>
     <g id="text_6">
      <!-- 25 -->
      <g style="fill: #262626" transform="translate(294.56438 256.298537) scale(0.11 -0.11)">
       <use xlink:href="#DejaVuSans-32"/>
       <use xlink:href="#DejaVuSans-35" transform="translate(63.623047 0)"/>
      </g>
     </g>
    </g>
    <g id="xtick_7">
     <g id="line2d_7">
      <path d="M 349.937542 238.440256 
L 349.937542 20.798437 
" clip-path="url(#p9641202daf)" style="fill: none; stroke: #cccccc; stroke-linecap: round"/>
     </g>
     <g id="text_7">
      <!-- 30 -->
      <g style="fill: #262626" transform="translate(342.938792 256.298537) scale(0.11 -0.11)">
       <defs>
        <path id="DejaVuSans-33" d="M 2597 2516 
Q 3050 2419 3304 2112 
Q 3559 1806 3559 1356 
Q 3559 666 3084 287 
Q 2609 -91 1734 -91 
Q 1441 -91 1130 -33 
Q 819 25 488 141 
L 488 750 
Q 750 597 1062 519 
Q 1375 441 1716 441 
Q 2309 441 2620 675 
Q 2931 909 2931 1356 
Q 2931 1769 2642 2001 
Q 2353 2234 1838 2234 
L 1294 2234 
L 1294 2753 
L 1863 2753 
Q 2328 2753 2575 2939 
Q 2822 3125 2822 3475 
Q 2822 3834 2567 4026 
Q 2313 4219 1838 4219 
Q 1578 4219 1281 4162 
Q 984 4106 628 3988 
L 628 4550 
Q 988 4650 1302 4700 
Q 1616 4750 1894 4750 
Q 2613 4750 3031 4423 
Q 3450 4097 3450 3541 
Q 3450 3153 3228 2886 
Q 3006 2619 2597 2516 
z
" transform="scale(0.015625)"/>
       </defs>
       <use xlink:href="#DejaVuSans-33"/>
       <use xlink:href="#DejaVuSans-30" transform="translate(63.623047 0)"/>
      </g>
     </g>
    </g>
    <g id="text_8">
     <!-- Fold -->
     <g style="fill: #262626" transform="translate(197.271121 271.704318) scale(0.12 -0.12)">
      <defs>
       <path id="DejaVuSans-46" d="M 628 4666 
L 3309 4666 
L 3309 4134 
L 1259 4134 
L 1259 2759 
L 3109 2759 
L 3109 2228 
L 1259 2228 
L 1259 0 
L 628 0 
L 628 4666 
z
" transform="scale(0.015625)"/>
       <path id="DejaVuSans-6f" d="M 1959 3097 
Q 1497 3097 1228 2736 
Q 959 2375 959 1747 
Q 959 1119 1226 758 
Q 1494 397 1959 397 
Q 2419 397 2687 759 
Q 2956 1122 2956 1747 
Q 2956 2369 2687 2733 
Q 2419 3097 1959 3097 
z
M 1959 3584 
Q 2709 3584 3137 3096 
Q 3566 2609 3566 1747 
Q 3566 888 3137 398 
Q 2709 -91 1959 -91 
Q 1206 -91 779 398 
Q 353 888 353 1747 
Q 353 2609 779 3096 
Q 1206 3584 1959 3584 
z
" transform="scale(0.015625)"/>
       <path id="DejaVuSans-6c" d="M 603 4863 
L 1178 4863 
L 1178 0 
L 603 0 
L 603 4863 
z
" transform="scale(0.015625)"/>
       <path id="DejaVuSans-64" d="M 2906 2969 
L 2906 4863 
L 3481 4863 
L 3481 0 
L 2906 0 
L 2906 525 
Q 2725 213 2448 61 
Q 2172 -91 1784 -91 
Q 1150 -91 751 415 
Q 353 922 353 1747 
Q 353 2572 751 3078 
Q 1150 3584 1784 3584 
Q 2172 3584 2448 3432 
Q 2725 3281 2906 2969 
z
M 947 1747 
Q 947 1113 1208 752 
Q 1469 391 1925 391 
Q 2381 391 2643 752 
Q 2906 1113 2906 1747 
Q 2906 2381 2643 2742 
Q 2381 3103 1925 3103 
Q 1469 3103 1208 2742 
Q 947 2381 947 1747 
z
" transform="scale(0.015625)"/>
      </defs>
      <use xlink:href="#DejaVuSans-46"/>
      <use xlink:href="#DejaVuSans-6f" transform="translate(53.894531 0)"/>
      <use xlink:href="#DejaVuSans-6c" transform="translate(115.076172 0)"/>
      <use xlink:href="#DejaVuSans-64" transform="translate(142.859375 0)"/>
     </g>
    </g>
   </g>
   <g id="matplotlib.axis_2">
    <g id="ytick_1">
     <g id="line2d_8">
      <path d="M 44.695 220.597108 
L 374.608493 220.597108 
" clip-path="url(#p9641202daf)" style="fill: none; stroke: #cccccc; stroke-linecap: round"/>
     </g>
     <g id="text_9">
      <!-- 1400 -->
      <g style="fill: #262626" transform="translate(7.2 224.776248) scale(0.11 -0.11)">
       <defs>
        <path id="DejaVuSans-34" d="M 2419 4116 
L 825 1625 
L 2419 1625 
L 2419 4116 
z
M 2253 4666 
L 3047 4666 
L 3047 1625 
L 3713 1625 
L 3713 1100 
L 3047 1100 
L 3047 0 
L 2419 0 
L 2419 1100 
L 313 1100 
L 313 1709 
L 2253 4666 
z
" transform="scale(0.015625)"/>
       </defs>
       <use xlink:href="#DejaVuSans-31"/>
       <use xlink:href="#DejaVuSans-34" transform="translate(63.623047 0)"/>
       <use xlink:href="#DejaVuSans-30" transform="translate(127.246094 0)"/>
       <use xlink:href="#DejaVuSans-30" transform="translate(190.869141 0)"/>
      </g>
     </g>
    </g>
    <g id="ytick_2">
     <g id="line2d_9">
      <path d="M 44.695 182.506005 
L 374.608493 182.506005 
" clip-path="url(#p9641202daf)" style="fill: none; stroke: #cccccc; stroke-linecap: round"/>
     </g>
     <g id="text_10">
      <!-- 1600 -->
      <g style="fill: #262626" transform="translate(7.2 186.685145) scale(0.11 -0.11)">
       <defs>
        <path id="DejaVuSans-36" d="M 2113 2584 
Q 1688 2584 1439 2293 
Q 1191 2003 1191 1497 
Q 1191 994 1439 701 
Q 1688 409 2113 409 
Q 2538 409 2786 701 
Q 3034 994 3034 1497 
Q 3034 2003 2786 2293 
Q 2538 2584 2113 2584 
z
M 3366 4563 
L 3366 3988 
Q 3128 4100 2886 4159 
Q 2644 4219 2406 4219 
Q 1781 4219 1451 3797 
Q 1122 3375 1075 2522 
Q 1259 2794 1537 2939 
Q 1816 3084 2150 3084 
Q 2853 3084 3261 2657 
Q 3669 2231 3669 1497 
Q 3669 778 3244 343 
Q 2819 -91 2113 -91 
Q 1303 -91 875 529 
Q 447 1150 447 2328 
Q 447 3434 972 4092 
Q 1497 4750 2381 4750 
Q 2619 4750 2861 4703 
Q 3103 4656 3366 4563 
z
" transform="scale(0.015625)"/>
       </defs>
       <use xlink:href="#DejaVuSans-31"/>
       <use xlink:href="#DejaVuSans-36" transform="translate(63.623047 0)"/>
       <use xlink:href="#DejaVuSans-30" transform="translate(127.246094 0)"/>
       <use xlink:href="#DejaVuSans-30" transform="translate(190.869141 0)"/>
      </g>
     </g>
    </g>
    <g id="ytick_3">
     <g id="line2d_10">
      <path d="M 44.695 144.414902 
L 374.608493 144.414902 
" clip-path="url(#p9641202daf)" style="fill: none; stroke: #cccccc; stroke-linecap: round"/>
     </g>
     <g id="text_11">
      <!-- 1800 -->
      <g style="fill: #262626" transform="translate(7.2 148.594042) scale(0.11 -0.11)">
       <defs>
        <path id="DejaVuSans-38" d="M 2034 2216 
Q 1584 2216 1326 1975 
Q 1069 1734 1069 1313 
Q 1069 891 1326 650 
Q 1584 409 2034 409 
Q 2484 409 2743 651 
Q 3003 894 3003 1313 
Q 3003 1734 2745 1975 
Q 2488 2216 2034 2216 
z
M 1403 2484 
Q 997 2584 770 2862 
Q 544 3141 544 3541 
Q 544 4100 942 4425 
Q 1341 4750 2034 4750 
Q 2731 4750 3128 4425 
Q 3525 4100 3525 3541 
Q 3525 3141 3298 2862 
Q 3072 2584 2669 2484 
Q 3125 2378 3379 2068 
Q 3634 1759 3634 1313 
Q 3634 634 3220 271 
Q 2806 -91 2034 -91 
Q 1263 -91 848 271 
Q 434 634 434 1313 
Q 434 1759 690 2068 
Q 947 2378 1403 2484 
z
M 1172 3481 
Q 1172 3119 1398 2916 
Q 1625 2713 2034 2713 
Q 2441 2713 2670 2916 
Q 2900 3119 2900 3481 
Q 2900 3844 2670 4047 
Q 2441 4250 2034 4250 
Q 1625 4250 1398 4047 
Q 1172 3844 1172 3481 
z
" transform="scale(0.015625)"/>
       </defs>
       <use xlink:href="#DejaVuSans-31"/>
       <use xlink:href="#DejaVuSans-38" transform="translate(63.623047 0)"/>
       <use xlink:href="#DejaVuSans-30" transform="translate(127.246094 0)"/>
       <use xlink:href="#DejaVuSans-30" transform="translate(190.869141 0)"/>
      </g>
     </g>
    </g>
    <g id="ytick_4">
     <g id="line2d_11">
      <path d="M 44.695 106.323799 
L 374.608493 106.323799 
" clip-path="url(#p9641202daf)" style="fill: none; stroke: #cccccc; stroke-linecap: round"/>
     </g>
     <g id="text_12">
      <!-- 2000 -->
      <g style="fill: #262626" transform="translate(7.2 110.502939) scale(0.11 -0.11)">
       <use xlink:href="#DejaVuSans-32"/>
       <use xlink:href="#DejaVuSans-30" transform="translate(63.623047 0)"/>
       <use xlink:href="#DejaVuSans-30" transform="translate(127.246094 0)"/>
       <use xlink:href="#DejaVuSans-30" transform="translate(190.869141 0)"/>
      </g>
     </g>
    </g>
    <g id="ytick_5">
     <g id="line2d_12">
      <path d="M 44.695 68.232696 
L 374.608493 68.232696 
" clip-path="url(#p9641202daf)" style="fill: none; stroke: #cccccc; stroke-linecap: round"/>
     </g>
     <g id="text_13">
      <!-- 2200 -->
      <g style="fill: #262626" transform="translate(7.2 72.411836) scale(0.11 -0.11)">
       <use xlink:href="#DejaVuSans-32"/>
       <use xlink:href="#DejaVuSans-32" transform="translate(63.623047 0)"/>
       <use xlink:href="#DejaVuSans-30" transform="translate(127.246094 0)"/>
       <use xlink:href="#DejaVuSans-30" transform="translate(190.869141 0)"/>
      </g>
     </g>
    </g>
    <g id="ytick_6">
     <g id="line2d_13">
      <path d="M 44.695 30.141593 
L 374.608493 30.141593 
" clip-path="url(#p9641202daf)" style="fill: none; stroke: #cccccc; stroke-linecap: round"/>
     </g>
     <g id="text_14">
      <!-- 2400 -->
      <g style="fill: #262626" transform="translate(7.2 34.320733) scale(0.11 -0.11)">
       <use xlink:href="#DejaVuSans-32"/>
       <use xlink:href="#DejaVuSans-34" transform="translate(63.623047 0)"/>
       <use xlink:href="#DejaVuSans-30" transform="translate(127.246094 0)"/>
       <use xlink:href="#DejaVuSans-30" transform="translate(190.869141 0)"/>
      </g>
     </g>
    </g>
   </g>
   <g id="line2d_14">
    <path d="M 59.691068 222.575369 
L 69.36595 216.698293 
L 79.040833 211.574278 
L 88.715715 204.984517 
L 98.390598 198.717388 
L 108.06548 197.032999 
L 117.740363 195.127872 
L 127.415245 194.078844 
L 137.090128 189.046057 
L 146.76501 186.812585 
L 156.439893 182.50391 
L 166.114775 176.455423 
L 175.789658 167.842263 
L 185.46454 157.690984 
L 195.139423 147.732637 
L 204.814305 138.587534 
L 214.489188 129.665265 
L 224.16407 121.585951 
L 233.838952 107.541762 
L 243.513835 95.111683 
L 253.188717 84.765949 
L 262.8636 81.208049 
L 272.538482 82.758357 
L 282.213365 82.944242 
L 291.888247 79.472618 
L 301.56313 70.754327 
L 311.238012 61.500284 
L 320.912895 59.49612 
L 330.587777 58.888186 
L 340.26266 53.944342 
L 349.937542 42.013066 
L 359.612425 30.691247 
" clip-path="url(#p9641202daf)" style="fill: none; stroke: #243b3a; stroke-width: 2; stroke-linecap: round"/>
   </g>
   <g id="line2d_15">
    <path d="M 59.691068 228.547446 
L 69.36595 220.308343 
L 79.040833 211.846012 
L 88.715715 207.766079 
L 98.390598 201.80145 
L 108.06548 195.857898 
L 117.740363 186.974462 
L 127.415245 182.096985 
L 137.090128 191.181356 
L 146.76501 181.599442 
L 156.439893 179.512902 
L 166.114775 175.545942 
L 175.789658 175.101257 
L 185.46454 166.262338 
L 195.139423 156.652324 
L 204.814305 147.889903 
L 214.489188 134.089618 
L 224.16407 125.137833 
L 233.838952 119.041373 
L 243.513835 105.998464 
L 253.188717 99.802329 
L 262.8636 74.412172 
L 272.538482 66.632749 
L 282.213365 67.206817 
L 291.888247 63.808794 
L 301.56313 72.512659 
L 311.238012 68.65299 
L 320.912895 53.465664 
L 330.587777 45.255133 
L 340.26266 39.684381 
L 349.937542 47.81791 
L 359.612425 44.09194 
" clip-path="url(#p9641202daf)" style="fill: none; stroke-dasharray: 5.55,2.4; stroke-dashoffset: 0; stroke: #c0392b; stroke-width: 1.5"/>
   </g>
   <g id="line2d_16">
    <path d="M 59.691068 227.967339 
L 69.36595 219.695768 
L 79.040833 211.194203 
L 88.715715 207.107726 
L 98.390598 201.115257 
L 108.06548 195.261499 
L 117.740363 186.278144 
L 127.415245 181.308987 
L 137.090128 190.42304 
L 146.76501 180.989147 
L 156.439893 178.86564 
L 166.114775 174.861265 
L 175.789658 174.490068 
L 185.46454 165.616787 
L 195.139423 156.026579 
L 204.814305 147.274727 
L 214.489188 133.381595 
L 224.16407 124.477703 
L 233.838952 118.267583 
L 243.513835 105.297721 
L 253.188717 99.099366 
L 262.8636 73.448428 
L 272.538482 65.576156 
L 282.213365 66.287287 
L 291.888247 62.756481 
L 301.56313 71.528624 
L 311.238012 67.676076 
L 320.912895 52.398293 
L 330.587777 43.791141 
L 340.26266 38.089335 
L 349.937542 46.419971 
L 359.612425 42.788907 
" clip-path="url(#p9641202daf)" style="fill: none; stroke-dasharray: 1.5,2.475; stroke-dashoffset: 0; stroke: #3a8c7e; stroke-width: 1.5"/>
   </g>
   <g id="patch_3">
    <path d="M 44.695 238.440256 
L 44.695 20.798437 
" style="fill: none; stroke: #cccccc; stroke-width: 1.25; stroke-linejoin: miter; stroke-linecap: square"/>
   </g>
   <g id="patch_4">
    <path d="M 374.608493 238.440256 
L 374.608493 20.798437 
" style="fill: none; stroke: #cccccc; stroke-width: 1.25; stroke-linejoin: miter; stroke-linecap: square"/>
   </g>
   <g id="patch_5">
    <path d="M 44.695 238.440256 
L 374.608493 238.440256 
" style="fill: none; stroke: #cccccc; stroke-width: 1.25; stroke-linejoin: miter; stroke-linecap: square"/>
   </g>
   <g id="patch_6">
    <path d="M 44.695 20.798437 
L 374.608493 20.798437 
" style="fill: none; stroke: #cccccc; stroke-width: 1.25; stroke-linejoin: miter; stroke-linecap: square"/>
   </g>
   <g id="text_15">
    <!-- Jumlah 3 tahun ke depan — h=3 -->
    <g style="fill: #262626" transform="translate(128.281434 14.798437) scale(0.1 -0.1)">
     <defs>
      <path id="DejaVuSans-4a" d="M 628 4666 
L 1259 4666 
L 1259 325 
Q 1259 -519 939 -900 
Q 619 -1281 -91 -1281 
L -331 -1281 
L -331 -750 
L -134 -750 
Q 284 -750 456 -515 
Q 628 -281 628 325 
L 628 4666 
z
" transform="scale(0.015625)"/>
      <path id="DejaVuSans-75" d="M 544 1381 
L 544 3500 
L 1119 3500 
L 1119 1403 
Q 1119 906 1312 657 
Q 1506 409 1894 409 
Q 2359 409 2629 706 
Q 2900 1003 2900 1516 
L 2900 3500 
L 3475 3500 
L 3475 0 
L 2900 0 
L 2900 538 
Q 2691 219 2414 64 
Q 2138 -91 1772 -91 
Q 1169 -91 856 284 
Q 544 659 544 1381 
z
M 1991 3584 
L 1991 3584 
z
" transform="scale(0.015625)"/>
      <path id="DejaVuSans-6d" d="M 3328 2828 
Q 3544 3216 3844 3400 
Q 4144 3584 4550 3584 
Q 5097 3584 5394 3201 
Q 5691 2819 5691 2113 
L 5691 0 
L 5113 0 
L 5113 2094 
Q 5113 2597 4934 2840 
Q 4756 3084 4391 3084 
Q 3944 3084 3684 2787 
Q 3425 2491 3425 1978 
L 3425 0 
L 2847 0 
L 2847 2094 
Q 2847 2600 2669 2842 
Q 2491 3084 2119 3084 
Q 1678 3084 1418 2786 
Q 1159 2488 1159 1978 
L 1159 0 
L 581 0 
L 581 3500 
L 1159 3500 
L 1159 2956 
Q 1356 3278 1631 3431 
Q 1906 3584 2284 3584 
Q 2666 3584 2933 3390 
Q 3200 3197 3328 2828 
z
" transform="scale(0.015625)"/>
      <path id="DejaVuSans-61" d="M 2194 1759 
Q 1497 1759 1228 1600 
Q 959 1441 959 1056 
Q 959 750 1161 570 
Q 1363 391 1709 391 
Q 2188 391 2477 730 
Q 2766 1069 2766 1631 
L 2766 1759 
L 2194 1759 
z
M 3341 1997 
L 3341 0 
L 2766 0 
L 2766 531 
Q 2569 213 2275 61 
Q 1981 -91 1556 -91 
Q 1019 -91 701 211 
Q 384 513 384 1019 
Q 384 1609 779 1909 
Q 1175 2209 1959 2209 
L 2766 2209 
L 2766 2266 
Q 2766 2663 2505 2880 
Q 2244 3097 1772 3097 
Q 1472 3097 1187 3025 
Q 903 2953 641 2809 
L 641 3341 
Q 956 3463 1253 3523 
Q 1550 3584 1831 3584 
Q 2591 3584 2966 3190 
Q 3341 2797 3341 1997 
z
" transform="scale(0.015625)"/>
      <path id="DejaVuSans-68" d="M 3513 2113 
L 3513 0 
L 2938 0 
L 2938 2094 
Q 2938 2591 2744 2837 
Q 2550 3084 2163 3084 
Q 1697 3084 1428 2787 
Q 1159 2491 1159 1978 
L 1159 0 
L 581 0 
L 581 4863 
L 1159 4863 
L 1159 2956 
Q 1366 3272 1645 3428 
Q 1925 3584 2291 3584 
Q 2894 3584 3203 3211 
Q 3513 2838 3513 2113 
z
" transform="scale(0.015625)"/>
      <path id="DejaVuSans-20" transform="scale(0.015625)"/>
      <path id="DejaVuSans-74" d="M 1172 4494 
L 1172 3500 
L 2356 3500 
L 2356 3053 
L 1172 3053 
L 1172 1153 
Q 1172 725 1289 603 
Q 1406 481 1766 481 
L 2356 481 
L 2356 0 
L 1766 0 
Q 1100 0 847 248 
Q 594 497 594 1153 
L 594 3053 
L 172 3053 
L 172 3500 
L 594 3500 
L 594 4494 
L 1172 4494 
z
" transform="scale(0.015625)"/>
      <path id="DejaVuSans-6e" d="M 3513 2113 
L 3513 0 
L 2938 0 
L 2938 2094 
Q 2938 2591 2744 2837 
Q 2550 3084 2163 3084 
Q 1697 3084 1428 2787 
Q 1159 2491 1159 1978 
L 1159 0 
L 581 0 
L 581 3500 
L 1159 3500 
L 1159 2956 
Q 1366 3272 1645 3428 
Q 1925 3584 2291 3584 
Q 2894 3584 3203 3211 
Q 3513 2838 3513 2113 
z
" transform="scale(0.015625)"/>
      <path id="DejaVuSans-6b" d="M 581 4863 
L 1159 4863 
L 1159 1991 
L 2875 3500 
L 3609 3500 
L 1753 1863 
L 3688 0 
L 2938 0 
L 1159 1709 
L 1159 0 
L 581 0 
L 581 4863 
z
" transform="scale(0.015625)"/>
      <path id="DejaVuSans-65" d="M 3597 1894 
L 3597 1613 
L 953 1613 
Q 991 1019 1311 708 
Q 1631 397 2203 397 
Q 2534 397 2845 478 
Q 3156 559 3463 722 
L 3463 178 
Q 3153 47 2828 -22 
Q 2503 -91 2169 -91 
Q 1331 -91 842 396 
Q 353 884 353 1716 
Q 353 2575 817 3079 
Q 1281 3584 2069 3584 
Q 2775 3584 3186 3129 
Q 3597 2675 3597 1894 
z
M 3022 2063 
Q 3016 2534 2758 2815 
Q 2500 3097 2075 3097 
Q 1594 3097 1305 2825 
Q 1016 2553 972 2059 
L 3022 2063 
z
" transform="scale(0.015625)"/>
      <path id="DejaVuSans-70" d="M 1159 525 
L 1159 -1331 
L 581 -1331 
L 581 3500 
L 1159 3500 
L 1159 2969 
Q 1341 3281 1617 3432 
Q 1894 3584 2278 3584 
Q 2916 3584 3314 3078 
Q 3713 2572 3713 1747 
Q 3713 922 3314 415 
Q 2916 -91 2278 -91 
Q 1894 -91 1617 61 
Q 1341 213 1159 525 
z
M 3116 1747 
Q 3116 2381 2855 2742 
Q 2594 3103 2138 3103 
Q 1681 3103 1420 2742 
Q 1159 2381 1159 1747 
Q 1159 1113 1420 752 
Q 1681 391 2138 391 
Q 2594 391 2855 752 
Q 3116 1113 3116 1747 
z
" transform="scale(0.015625)"/>
      <path id="DejaVuSans-2014" d="M 313 1978 
L 6088 1978 
L 6088 1528 
L 313 1528 
L 313 1978 
z
" transform="scale(0.015625)"/>
      <path id="DejaVuSans-3d" d="M 678 2906 
L 4684 2906 
L 4684 2381 
L 678 2381 
L 678 2906 
z
M 678 1631 
L 4684 1631 
L 4684 1100 
L 678 1100 
L 678 1631 
z
" transform="scale(0.015625)"/>
     </defs>
     <use xlink:href="#DejaVuSans-4a"/>
     <use xlink:href="#DejaVuSans-75" transform="translate(29.492188 0)"/>
     <use xlink:href="#DejaVuSans-6d" transform="translate(92.871094 0)"/>
     <use xlink:href="#DejaVuSans-6c" transform="translate(190.283203 0)"/>
     <use xlink:href="#DejaVuSans-61" transform="translate(218.066406 0)"/>
     <use xlink:href="#DejaVuSans-68" transform="translate(279.345703 0)"/>
     <use xlink:href="#DejaVuSans-20" transform="translate(342.724609 0)"/>
     <use xlink:href="#DejaVuSans-33" transform="translate(374.511719 0)"/>
     <use xlink:href="#DejaVuSans-20" transform="translate(438.134766 0)"/>
     <use xlink:href="#DejaVuSans-74" transform="translate(469.921875 0)"/>
     <use xlink:href="#DejaVuSans-61" transform="translate(509.130859 0)"/>
     <use xlink:href="#DejaVuSans-68" transform="translate(570.410156 0)"/>
     <use xlink:href="#DejaVuSans-75" transform="translate(633.789062 0)"/>
     <use xlink:href="#DejaVuSans-6e" transform="translate(697.167969 0)"/>
     <use xlink:href="#DejaVuSans-20" transform="translate(760.546875 0)"/>
     <use xlink:href="#DejaVuSans-6b" transform="translate(792.333984 0)"/>
     <use xlink:href="#DejaVuSans-65" transform="translate(846.619141 0)"/>
     <use xlink:href="#DejaVuSans-20" transform="translate(908.142578 0)"/>
     <use xlink:href="#DejaVuSans-64" transform="translate(939.929688 0)"/>
     <use xlink:href="#DejaVuSans-65" transform="translate(1003.40625 0)"/>
     <use xlink:href="#DejaVuSans-70" transform="translate(1064.929688 0)"/>
     <use xlink:href="#DejaVuSans-61" transform="translate(1128.40625 0)"/>
     <use xlink:href="#DejaVuSans-6e" transform="translate(1189.685547 0)"/>
     <use xlink:href="#DejaVuSans-20" transform="translate(1253.064453 0)"/>
     <use xlink:href="#DejaVuSans-2014" transform="translate(1284.851562 0)"/>
     <use xlink:href="#DejaVuSans-20" transform="translate(1384.851562 0)"/>
     <use xlink:href="#DejaVuSans-68" transform="translate(1416.638672 0)"/>
     <use xlink:href="#DejaVuSans-3d" transform="translate(1480.017578 0)"/>
     <use xlink:href="#DejaVuSans-33" transform="translate(1563.806641 0)"/>
    </g>
   </g>
   <g id="legend_1">
    <g id="patch_7">
     <path d="M 49.945 59.824219 
L 160.243047 59.824219 
Q 161.743047 59.824219 161.743047 58.324219 
L 161.743047 26.048437 
Q 161.743047 24.548437 160.243047 24.548437 
L 49.945 24.548437 
Q 48.445 24.548437 48.445 26.048437 
L 48.445 58.324219 
Q 48.445 59.824219 49.945 59.824219 
z
" style="fill: #ffffff; opacity: 0.8; stroke: #cccccc; stroke-linejoin: miter"/>
    </g>
    <g id="line2d_17">
     <path d="M 51.445 30.622266 
L 58.945 30.622266 
L 66.445 30.622266 
" style="fill: none; stroke: #243b3a; stroke-width: 2; stroke-linecap: round"/>
    </g>
    <g id="text_16">
     <!-- Aktual -->
     <g style="fill: #262626" transform="translate(72.445 33.247266) scale(0.075 -0.075)">
      <defs>
       <path id="DejaVuSans-41" d="M 2188 4044 
L 1331 1722 
L 3047 1722 
L 2188 4044 
z
M 1831 4666 
L 2547 4666 
L 4325 0 
L 3669 0 
L 3244 1197 
L 1141 1197 
L 716 0 
L 50 0 
L 1831 4666 
z
" transform="scale(0.015625)"/>
      </defs>
      <use xlink:href="#DejaVuSans-41"/>
      <use xlink:href="#DejaVuSans-6b" transform="translate(68.408203 0)"/>
      <use xlink:href="#DejaVuSans-74" transform="translate(126.318359 0)"/>
      <use xlink:href="#DejaVuSans-75" transform="translate(165.527344 0)"/>
      <use xlink:href="#DejaVuSans-61" transform="translate(228.90625 0)"/>
      <use xlink:href="#DejaVuSans-6c" transform="translate(290.185547 0)"/>
     </g>
    </g>
    <g id="line2d_18">
     <path d="M 51.445 41.630859 
L 58.945 41.630859 
L 66.445 41.630859 
" style="fill: none; stroke-dasharray: 5.55,2.4; stroke-dashoffset: 0; stroke: #c0392b; stroke-width: 1.5"/>
    </g>
    <g id="text_17">
     <!-- Langsung (top-down) -->
     <g style="fill: #262626" transform="translate(72.445 44.255859) scale(0.075 -0.075)">
      <defs>
       <path id="DejaVuSans-4c" d="M 628 4666 
L 1259 4666 
L 1259 531 
L 3531 531 
L 3531 0 
L 628 0 
L 628 4666 
z
" transform="scale(0.015625)"/>
       <path id="DejaVuSans-67" d="M 2906 1791 
Q 2906 2416 2648 2759 
Q 2391 3103 1925 3103 
Q 1463 3103 1205 2759 
Q 947 2416 947 1791 
Q 947 1169 1205 825 
Q 1463 481 1925 481 
Q 2391 481 2648 825 
Q 2906 1169 2906 1791 
z
M 3481 434 
Q 3481 -459 3084 -895 
Q 2688 -1331 1869 -1331 
Q 1566 -1331 1297 -1286 
Q 1028 -1241 775 -1147 
L 775 -588 
Q 1028 -725 1275 -790 
Q 1522 -856 1778 -856 
Q 2344 -856 2625 -561 
Q 2906 -266 2906 331 
L 2906 616 
Q 2728 306 2450 153 
Q 2172 0 1784 0 
Q 1141 0 747 490 
Q 353 981 353 1791 
Q 353 2603 747 3093 
Q 1141 3584 1784 3584 
Q 2172 3584 2450 3431 
Q 2728 3278 2906 2969 
L 2906 3500 
L 3481 3500 
L 3481 434 
z
" transform="scale(0.015625)"/>
       <path id="DejaVuSans-73" d="M 2834 3397 
L 2834 2853 
Q 2591 2978 2328 3040 
Q 2066 3103 1784 3103 
Q 1356 3103 1142 2972 
Q 928 2841 928 2578 
Q 928 2378 1081 2264 
Q 1234 2150 1697 2047 
L 1894 2003 
Q 2506 1872 2764 1633 
Q 3022 1394 3022 966 
Q 3022 478 2636 193 
Q 2250 -91 1575 -91 
Q 1294 -91 989 -36 
Q 684 19 347 128 
L 347 722 
Q 666 556 975 473 
Q 1284 391 1588 391 
Q 1994 391 2212 530 
Q 2431 669 2431 922 
Q 2431 1156 2273 1281 
Q 2116 1406 1581 1522 
L 1381 1569 
Q 847 1681 609 1914 
Q 372 2147 372 2553 
Q 372 3047 722 3315 
Q 1072 3584 1716 3584 
Q 2034 3584 2315 3537 
Q 2597 3491 2834 3397 
z
" transform="scale(0.015625)"/>
       <path id="DejaVuSans-28" d="M 1984 4856 
Q 1566 4138 1362 3434 
Q 1159 2731 1159 2009 
Q 1159 1288 1364 580 
Q 1569 -128 1984 -844 
L 1484 -844 
Q 1016 -109 783 600 
Q 550 1309 550 2009 
Q 550 2706 781 3412 
Q 1013 4119 1484 4856 
L 1984 4856 
z
" transform="scale(0.015625)"/>
       <path id="DejaVuSans-2d" d="M 313 2009 
L 1997 2009 
L 1997 1497 
L 313 1497 
L 313 2009 
z
" transform="scale(0.015625)"/>
       <path id="DejaVuSans-77" d="M 269 3500 
L 844 3500 
L 1563 769 
L 2278 3500 
L 2956 3500 
L 3675 769 
L 4391 3500 
L 4966 3500 
L 4050 0 
L 3372 0 
L 2619 2869 
L 1863 0 
L 1184 0 
L 269 3500 
z
" transform="scale(0.015625)"/>
       <path id="DejaVuSans-29" d="M 513 4856 
L 1013 4856 
Q 1481 4119 1714 3412 
Q 1947 2706 1947 2009 
Q 1947 1309 1714 600 
Q 1481 -109 1013 -844 
L 513 -844 
Q 928 -128 1133 580 
Q 1338 1288 1338 2009 
Q 1338 2731 1133 3434 
Q 928 4138 513 4856 
z
" transform="scale(0.015625)"/>
      </defs>
      <use xlink:href="#DejaVuSans-4c"/>
      <use xlink:href="#DejaVuSans-61" transform="translate(55.712891 0)"/>
      <use xlink:href="#DejaVuSans-6e" transform="translate(116.992188 0)"/>
      <use xlink:href="#DejaVuSans-67" transform="translate(180.371094 0)"/>
      <use xlink:href="#DejaVuSans-73" transform="translate(243.847656 0)"/>
      <use xlink:href="#DejaVuSans-75" transform="translate(295.947266 0)"/>
      <use xlink:href="#DejaVuSans-6e" transform="translate(359.326172 0)"/>
      <use xlink:href="#DejaVuSans-67" transform="translate(422.705078 0)"/>
      <use xlink:href="#DejaVuSans-20" transform="translate(486.181641 0)"/>
      <use xlink:href="#DejaVuSans-28" transform="translate(517.96875 0)"/>
      <use xlink:href="#DejaVuSans-74" transform="translate(556.982422 0)"/>
      <use xlink:href="#DejaVuSans-6f" transform="translate(596.191406 0)"/>
      <use xlink:href="#DejaVuSans-70" transform="translate(657.373047 0)"/>
      <use xlink:href="#DejaVuSans-2d" transform="translate(720.849609 0)"/>
      <use xlink:href="#DejaVuSans-64" transform="translate(756.933594 0)"/>
      <use xlink:href="#DejaVuSans-6f" transform="translate(820.410156 0)"/>
      <use xlink:href="#DejaVuSans-77" transform="translate(881.591797 0)"/>
      <use xlink:href="#DejaVuSans-6e" transform="translate(963.378906 0)"/>
      <use xlink:href="#DejaVuSans-29" transform="translate(1026.757812 0)"/>
     </g>
    </g>
    <g id="line2d_19">
     <path d="M 51.445 52.639453 
L 58.945 52.639453 
L 66.445 52.639453 
" style="fill: none; stroke-dasharray: 1.5,2.475; stroke-dashoffset: 0; stroke: #3a8c7e; stroke-width: 1.5"/>
    </g>
    <g id="text_18">
     <!-- Bottom-up (10 negara) -->
     <g style="fill: #262626" transform="translate(72.445 55.264453) scale(0.075 -0.075)">
      <defs>
       <path id="DejaVuSans-42" d="M 1259 2228 
L 1259 519 
L 2272 519 
Q 2781 519 3026 730 
Q 3272 941 3272 1375 
Q 3272 1813 3026 2020 
Q 2781 2228 2272 2228 
L 1259 2228 
z
M 1259 4147 
L 1259 2741 
L 2194 2741 
Q 2656 2741 2882 2914 
Q 3109 3088 3109 3444 
Q 3109 3797 2882 3972 
Q 2656 4147 2194 4147 
L 1259 4147 
z
M 628 4666 
L 2241 4666 
Q 2963 4666 3353 4366 
Q 3744 4066 3744 3513 
Q 3744 3084 3544 2831 
Q 3344 2578 2956 2516 
Q 3422 2416 3680 2098 
Q 3938 1781 3938 1306 
Q 3938 681 3513 340 
Q 3088 0 2303 0 
L 628 0 
L 628 4666 
z
" transform="scale(0.015625)"/>
       <path id="DejaVuSans-72" d="M 2631 2963 
Q 2534 3019 2420 3045 
Q 2306 3072 2169 3072 
Q 1681 3072 1420 2755 
Q 1159 2438 1159 1844 
L 1159 0 
L 581 0 
L 581 3500 
L 1159 3500 
L 1159 2956 
Q 1341 3275 1631 3429 
Q 1922 3584 2338 3584 
Q 2397 3584 2469 3576 
Q 2541 3569 2628 3553 
L 2631 2963 
z
" transform="scale(0.015625)"/>
      </defs>
      <use xlink:href="#DejaVuSans-42"/>
      <use xlink:href="#DejaVuSans-6f" transform="translate(68.603516 0)"/>
      <use xlink:href="#DejaVuSans-74" transform="translate(129.785156 0)"/>
      <use xlink:href="#DejaVuSans-74" transform="translate(168.994141 0)"/>
      <use xlink:href="#DejaVuSans-6f" transform="translate(208.203125 0)"/>
      <use xlink:href="#DejaVuSans-6d" transform="translate(269.384766 0)"/>
      <use xlink:href="#DejaVuSans-2d" transform="translate(366.796875 0)"/>
      <use xlink:href="#DejaVuSans-75" transform="translate(402.880859 0)"/>
      <use xlink:href="#DejaVuSans-70" transform="translate(466.259766 0)"/>
      <use xlink:href="#DejaVuSans-20" transform="translate(529.736328 0)"/>
      <use xlink:href="#DejaVuSans-28" transform="translate(561.523438 0)"/>
      <use xlink:href="#DejaVuSans-31" transform="translate(600.537109 0)"/>
      <use xlink:href="#DejaVuSans-30" transform="translate(664.160156 0)"/>
      <use xlink:href="#DejaVuSans-20" transform="translate(727.783203 0)"/>
      <use xlink:href="#DejaVuSans-6e" transform="translate(759.570312 0)"/>
      <use xlink:href="#DejaVuSans-65" transform="translate(822.949219 0)"/>
      <use xlink:href="#DejaVuSans-67" transform="translate(884.472656 0)"/>
      <use xlink:href="#DejaVuSans-61" transform="translate(947.949219 0)"/>
      <use xlink:href="#DejaVuSans-72" transform="translate(1009.228516 0)"/>
      <use xlink:href="#DejaVuSans-61" transform="translate(1050.341797 0)"/>
      <use xlink:href="#DejaVuSans-29" transform="translate(1111.621094 0)"/>
     </g>
    </g>
   </g>
  </g>
  <g id="axes_2">
   <g id="patch_8">
    <path d="M 424.896997 238.440256 
L 754.81049 238.440256 
L 754.81049 20.798437 
L 424.896997 20.798437 
z
" style="fill: #ffffff"/>
   </g>
   <g id="matplotlib.axis_3">
    <g id="xtick_8">
     <g id="line2d_20">
      <path d="M 439.893065 238.440256 
L 439.893065 20.798437 
" clip-path="url(#p6369e7620e)" style="fill: none; stroke: #cccccc; stroke-linecap: round"/>
     </g>
     <g id="text_19">
      <!-- 0 -->
      <g style="fill: #262626" transform="translate(436.39369 256.298537) scale(0.11 -0.11)">
       <use xlink:href="#DejaVuSans-30"/>
      </g>
     </g>
    </g>
    <g id="xtick_9">
     <g id="line2d_21">
      <path d="M 491.603644 238.440256 
L 491.603644 20.798437 
" clip-path="url(#p6369e7620e)" style="fill: none; stroke: #cccccc; stroke-linecap: round"/>
     </g>
     <g id="text_20">
      <!-- 5 -->
      <g style="fill: #262626" transform="translate(488.104269 256.298537) scale(0.11 -0.11)">
       <use xlink:href="#DejaVuSans-35"/>
      </g>
     </g>
    </g>
    <g id="xtick_10">
     <g id="line2d_22">
      <path d="M 543.314222 238.440256 
L 543.314222 20.798437 
" clip-path="url(#p6369e7620e)" style="fill: none; stroke: #cccccc; stroke-linecap: round"/>
     </g>
     <g id="text_21">
      <!-- 10 -->
      <g style="fill: #262626" transform="translate(536.315472 256.298537) scale(0.11 -0.11)">
       <use xlink:href="#DejaVuSans-31"/>
       <use xlink:href="#DejaVuSans-30" transform="translate(63.623047 0)"/>
      </g>
     </g>
    </g>
    <g id="xtick_11">
     <g id="line2d_23">
      <path d="M 595.024801 238.440256 
L 595.024801 20.798437 
" clip-path="url(#p6369e7620e)" style="fill: none; stroke: #cccccc; stroke-linecap: round"/>
     </g>
     <g id="text_22">
      <!-- 15 -->
      <g style="fill: #262626" transform="translate(588.026051 256.298537) scale(0.11 -0.11)">
       <use xlink:href="#DejaVuSans-31"/>
       <use xlink:href="#DejaVuSans-35" transform="translate(63.623047 0)"/>
      </g>
     </g>
    </g>
    <g id="xtick_12">
     <g id="line2d_24">
      <path d="M 646.73538 238.440256 
L 646.73538 20.798437 
" clip-path="url(#p6369e7620e)" style="fill: none; stroke: #cccccc; stroke-linecap: round"/>
     </g>
     <g id="text_23">
      <!-- 20 -->
      <g style="fill: #262626" transform="translate(639.73663 256.298537) scale(0.11 -0.11)">
       <use xlink:href="#DejaVuSans-32"/>
       <use xlink:href="#DejaVuSans-30" transform="translate(63.623047 0)"/>
      </g>
     </g>
    </g>
    <g id="xtick_13">
     <g id="line2d_25">
      <path d="M 698.445959 238.440256 
L 698.445959 20.798437 
" clip-path="url(#p6369e7620e)" style="fill: none; stroke: #cccccc; stroke-linecap: round"/>
     </g>
     <g id="text_24">
      <!-- 25 -->
      <g style="fill: #262626" transform="translate(691.447209 256.298537) scale(0.11 -0.11)">
       <use xlink:href="#DejaVuSans-32"/>
       <use xlink:href="#DejaVuSans-35" transform="translate(63.623047 0)"/>
      </g>
     </g>
    </g>
    <g id="xtick_14">
     <g id="line2d_26">
      <path d="M 750.156537 238.440256 
L 750.156537 20.798437 
" clip-path="url(#p6369e7620e)" style="fill: none; stroke: #cccccc; stroke-linecap: round"/>
     </g>
     <g id="text_25">
      <!-- 30 -->
      <g style="fill: #262626" transform="translate(743.157787 256.298537) scale(0.11 -0.11)">
       <use xlink:href="#DejaVuSans-33"/>
       <use xlink:href="#DejaVuSans-30" transform="translate(63.623047 0)"/>
      </g>
     </g>
    </g>
    <g id="text_26">
     <!-- Fold -->
     <g style="fill: #262626" transform="translate(577.473118 271.704318) scale(0.12 -0.12)">
      <use xlink:href="#DejaVuSans-46"/>
      <use xlink:href="#DejaVuSans-6f" transform="translate(53.894531 0)"/>
      <use xlink:href="#DejaVuSans-6c" transform="translate(115.076172 0)"/>
      <use xlink:href="#DejaVuSans-64" transform="translate(142.859375 0)"/>
     </g>
    </g>
   </g>
   <g id="matplotlib.axis_4">
    <g id="ytick_7">
     <g id="line2d_27">
      <path d="M 424.896997 234.535758 
L 754.81049 234.535758 
" clip-path="url(#p6369e7620e)" style="fill: none; stroke: #cccccc; stroke-linecap: round"/>
     </g>
     <g id="text_27">
      <!-- 2250 -->
      <g style="fill: #262626" transform="translate(387.401997 238.714899) scale(0.11 -0.11)">
       <use xlink:href="#DejaVuSans-32"/>
       <use xlink:href="#DejaVuSans-32" transform="translate(63.623047 0)"/>
       <use xlink:href="#DejaVuSans-35" transform="translate(127.246094 0)"/>
       <use xlink:href="#DejaVuSans-30" transform="translate(190.869141 0)"/>
      </g>
     </g>
    </g>
    <g id="ytick_8">
     <g id="line2d_28">
      <path d="M 424.896997 205.563374 
L 754.81049 205.563374 
" clip-path="url(#p6369e7620e)" style="fill: none; stroke: #cccccc; stroke-linecap: round"/>
     </g>
     <g id="text_28">
      <!-- 2500 -->
      <g style="fill: #262626" transform="translate(387.401997 209.742515) scale(0.11 -0.11)">
       <use xlink:href="#DejaVuSans-32"/>
       <use xlink:href="#DejaVuSans-35" transform="translate(63.623047 0)"/>
       <use xlink:href="#DejaVuSans-30" transform="translate(127.246094 0)"/>
       <use xlink:href="#DejaVuSans-30" transform="translate(190.869141 0)"/>
      </g>
     </g>
    </g>
    <g id="ytick_9">
     <g id="line2d_29">
      <path d="M 424.896997 176.59099 
L 754.81049 176.59099 
" clip-path="url(#p6369e7620e)" style="fill: none; stroke: #cccccc; stroke-linecap: round"/>
     </g>
     <g id="text_29">
      <!-- 2750 -->
      <g style="fill: #262626" transform="translate(387.401997 180.770131) scale(0.11 -0.11)">
       <defs>
        <path id="DejaVuSans-37" d="M 525 4666 
L 3525 4666 
L 3525 4397 
L 1831 0 
L 1172 0 
L 2766 4134 
L 525 4134 
L 525 4666 
z
" transform="scale(0.015625)"/>
       </defs>
       <use xlink:href="#DejaVuSans-32"/>
       <use xlink:href="#DejaVuSans-37" transform="translate(63.623047 0)"/>
       <use xlink:href="#DejaVuSans-35" transform="translate(127.246094 0)"/>
       <use xlink:href="#DejaVuSans-30" transform="translate(190.869141 0)"/>
      </g>
     </g>
    </g>
    <g id="ytick_10">
     <g id="line2d_30">
      <path d="M 424.896997 147.618606 
L 754.81049 147.618606 
" clip-path="url(#p6369e7620e)" style="fill: none; stroke: #cccccc; stroke-linecap: round"/>
     </g>
     <g id="text_30">
      <!-- 3000 -->
      <g style="fill: #262626" transform="translate(387.401997 151.797747) scale(0.11 -0.11)">
       <use xlink:href="#DejaVuSans-33"/>
       <use xlink:href="#DejaVuSans-30" transform="translate(63.623047 0)"/>
       <use xlink:href="#DejaVuSans-30" transform="translate(127.246094 0)"/>
       <use xlink:href="#DejaVuSans-30" transform="translate(190.869141 0)"/>
      </g>
     </g>
    </g>
    <g id="ytick_11">
     <g id="line2d_31">
      <path d="M 424.896997 118.646222 
L 754.81049 118.646222 
" clip-path="url(#p6369e7620e)" style="fill: none; stroke: #cccccc; stroke-linecap: round"/>
     </g>
     <g id="text_31">
      <!-- 3250 -->
      <g style="fill: #262626" transform="translate(387.401997 122.825363) scale(0.11 -0.11)">
       <use xlink:href="#DejaVuSans-33"/>
       <use xlink:href="#DejaVuSans-32" transform="translate(63.623047 0)"/>
       <use xlink:href="#DejaVuSans-35" transform="translate(127.246094 0)"/>
       <use xlink:href="#DejaVuSans-30" transform="translate(190.869141 0)"/>
      </g>
     </g>
    </g>
    <g id="ytick_12">
     <g id="line2d_32">
      <path d="M 424.896997 89.673838 
L 754.81049 89.673838 
" clip-path="url(#p6369e7620e)" style="fill: none; stroke: #cccccc; stroke-linecap: round"/>
     </g>
     <g id="text_32">
      <!-- 3500 -->
      <g style="fill: #262626" transform="translate(387.401997 93.852979) scale(0.11 -0.11)">
       <use xlink:href="#DejaVuSans-33"/>
       <use xlink:href="#DejaVuSans-35" transform="translate(63.623047 0)"/>
       <use xlink:href="#DejaVuSans-30" transform="translate(127.246094 0)"/>
       <use xlink:href="#DejaVuSans-30" transform="translate(190.869141 0)"/>
      </g>
     </g>
    </g>
    <g id="ytick_13">
     <g id="line2d_33">
      <path d="M 424.896997 60.701454 
L 754.81049 60.701454 
" clip-path="url(#p6369e7620e)" style="fill: none; stroke: #cccccc; stroke-linecap: round"/>
     </g>
     <g id="text_33">
      <!-- 3750 -->
      <g style="fill: #262626" transform="translate(387.401997 64.880595) scale(0.11 -0.11)">
       <use xlink:href="#DejaVuSans-33"/>
       <use xlink:href="#DejaVuSans-37" transform="translate(63.623047 0)"/>
       <use xlink:href="#DejaVuSans-35" transform="translate(127.246094 0)"/>
       <use xlink:href="#DejaVuSans-30" transform="translate(190.869141 0)"/>
      </g>
     </g>
    </g>
    <g id="ytick_14">
     <g id="line2d_34">
      <path d="M 424.896997 31.729071 
L 754.81049 31.729071 
" clip-path="url(#p6369e7620e)" style="fill: none; stroke: #cccccc; stroke-linecap: round"/>
     </g>
     <g id="text_34">
      <!-- 4000 -->
      <g style="fill: #262626" transform="translate(387.401997 35.908211) scale(0.11 -0.11)">
       <use xlink:href="#DejaVuSans-34"/>
       <use xlink:href="#DejaVuSans-30" transform="translate(63.623047 0)"/>
       <use xlink:href="#DejaVuSans-30" transform="translate(127.246094 0)"/>
       <use xlink:href="#DejaVuSans-30" transform="translate(190.869141 0)"/>
      </g>
     </g>
    </g>
   </g>
   <g id="line2d_35">
    <path d="M 439.893065 221.266406 
L 450.235181 214.836739 
L 460.577296 209.059298 
L 470.919412 205.724229 
L 481.261528 201.711438 
L 491.603644 198.413569 
L 501.945759 196.025897 
L 512.287875 194.46753 
L 522.629991 189.57282 
L 532.972107 184.663971 
L 543.314222 178.502936 
L 553.656338 170.493694 
L 563.998454 160.884365 
L 574.34057 151.780431 
L 584.682685 142.022532 
L 595.024801 132.738042 
L 605.366917 121.265326 
L 615.709033 110.003413 
L 626.051148 99.988355 
L 636.393264 91.779783 
L 646.73538 86.377361 
L 657.077496 85.021105 
L 667.419611 82.26363 
L 677.761727 77.851483 
L 688.103843 73.029204 
L 698.445959 68.108882 
L 708.788074 63.213708 
L 719.13019 57.495602 
L 729.472306 50.620224 
L 739.814422 44.466837 
" clip-path="url(#p6369e7620e)" style="fill: none; stroke: #243b3a; stroke-width: 2; stroke-linecap: round"/>
   </g>
   <g id="line2d_36">
    <path d="M 439.893065 228.547446 
L 450.235181 219.920677 
L 460.577296 211.064734 
L 470.919412 206.876678 
L 481.261528 200.687922 
L 491.603644 194.525764 
L 501.945759 185.248377 
L 512.287875 180.226299 
L 522.629991 189.990327 
L 532.972107 179.985737 
L 543.314222 177.91311 
L 553.656338 173.851802 
L 563.998454 173.508959 
L 574.34057 164.306936 
L 584.682685 154.296457 
L 595.024801 145.185079 
L 605.366917 130.765805 
L 615.709033 121.465299 
L 626.051148 115.178732 
L 636.393264 101.575046 
L 646.73538 95.190757 
L 657.077496 68.587851 
L 667.419611 60.547878 
L 677.761727 61.307152 
L 688.103843 57.880564 
L 698.445959 67.177018 
L 708.788074 63.256799 
L 719.13019 47.437264 
L 729.472306 38.951826 
L 739.814422 33.240998 
" clip-path="url(#p6369e7620e)" style="fill: none; stroke-dasharray: 5.55,2.4; stroke-dashoffset: 0; stroke: #c0392b; stroke-width: 1.5"/>
   </g>
   <g id="line2d_37">
    <path d="M 439.893065 227.59261 
L 450.235181 218.916881 
L 460.577296 210.002267 
L 470.919412 205.80224 
L 481.261528 199.56954 
L 491.603644 193.554556 
L 501.945759 184.115665 
L 512.287875 178.945508 
L 522.629991 188.760626 
L 532.972107 178.993076 
L 543.314222 176.86062 
L 553.656338 172.736576 
L 563.998454 172.518316 
L 574.34057 163.26048 
L 584.682685 153.285207 
L 595.024801 144.192108 
L 605.366917 129.62069 
L 615.709033 120.398495 
L 626.051148 113.921227 
L 636.393264 100.442956 
L 646.73538 94.053909 
L 657.077496 67.030496 
L 667.419611 58.842527 
L 677.761727 59.830027 
L 688.103843 56.189142 
L 698.445959 65.597961 
L 708.788074 61.689785 
L 719.13019 45.727377 
L 729.472306 36.608896 
L 739.814422 30.691247 
" clip-path="url(#p6369e7620e)" style="fill: none; stroke-dasharray: 1.5,2.475; stroke-dashoffset: 0; stroke: #3a8c7e; stroke-width: 1.5"/>
   </g>
   <g id="patch_9">
    <path d="M 424.896997 238.440256 
L 424.896997 20.798437 
" style="fill: none; stroke: #cccccc; stroke-width: 1.25; stroke-linejoin: miter; stroke-linecap: square"/>
   </g>
   <g id="patch_10">
    <path d="M 754.81049 238.440256 
L 754.81049 20.798437 
" style="fill: none; stroke: #cccccc; stroke-width: 1.25; stroke-linejoin: miter; stroke-linecap: square"/>
   </g>
   <g id="patch_11">
    <path d="M 424.896997 238.440256 
L 754.81049 238.440256 
" style="fill: none; stroke: #cccccc; stroke-width: 1.25; stroke-linejoin: miter; stroke-linecap: square"/>
   </g>
   <g id="patch_12">
    <path d="M 424.896997 20.798437 
L 754.81049 20.798437 
" style="fill: none; stroke: #cccccc; stroke-width: 1.25; stroke-linejoin: miter; stroke-linecap: square"/>
   </g>
   <g id="text_35">
    <!-- Jumlah 5 tahun ke depan — h=5 -->
    <g style="fill: #262626" transform="translate(508.483431 14.798437) scale(0.1 -0.1)">
     <use xlink:href="#DejaVuSans-4a"/>
     <use xlink:href="#DejaVuSans-75" transform="translate(29.492188 0)"/>
     <use xlink:href="#DejaVuSans-6d" transform="translate(92.871094 0)"/>
     <use xlink:href="#DejaVuSans-6c" transform="translate(190.283203 0)"/>
     <use xlink:href="#DejaVuSans-61" transform="translate(218.066406 0)"/>
     <use xlink:href="#DejaVuSans-68" transform="translate(279.345703 0)"/>
     <use xlink:href="#DejaVuSans-20" transform="translate(342.724609 0)"/>
     <use xlink:href="#DejaVuSans-35" transform="translate(374.511719 0)"/>
     <use xlink:href="#DejaVuSans-20" transform="translate(438.134766 0)"/>
     <use xlink:href="#DejaVuSans-74" transform="translate(469.921875 0)"/>
     <use xlink:href="#DejaVuSans-61" transform="translate(509.130859 0)"/>
     <use xlink:href="#DejaVuSans-68" transform="translate(570.410156 0)"/>
     <use xlink:href="#DejaVuSans-75" transform="translate(633.789062 0)"/>
     <use xlink:href="#DejaVuSans-6e" transform="translate(697.167969 0)"/>
     <use xlink:href="#DejaVuSans-20" transform="translate(760.546875 0)"/>
     <use xlink:href="#DejaVuSans-6b" transform="translate(792.333984 0)"/>
     <use xlink:href="#DejaVuSans-65" transform="translate(846.619141 0)"/>
     <use xlink:href="#DejaVuSans-20" transform="translate(908.142578 0)"/>
     <use xlink:href="#DejaVuSans-64" transform="translate(939.929688 0)"/>
     <use xlink:href="#DejaVuSans-65" transform="translate(1003.40625 0)"/>
     <use xlink:href="#DejaVuSans-70" transform="translate(1064.929688 0)"/>
     <use xlink:href="#DejaVuSans-61" transform="translate(1128.40625 0)"/>
     <use xlink:href="#DejaVuSans-6e" transform="translate(1189.685547 0)"/>
     <use xlink:href="#DejaVuSans-20" transform="translate(1253.064453 0)"/>
     <use xlink:href="#DejaVuSans-2014" transform="translate(1284.851562 0)"/>
     <use xlink:href="#DejaVuSans-20" transform="translate(1384.851562 0)"/>
     <use xlink:href="#DejaVuSans-68" transform="translate(1416.638672 0)"/>
     <use xlink:href="#DejaVuSans-3d" transform="translate(1480.017578 0)"/>
     <use xlink:href="#DejaVuSans-35" transform="translate(1563.806641 0)"/>
    </g>
   </g>
   <g id="legend_2">
    <g id="patch_13">
     <path d="M 430.146997 59.824219 
L 540.445044 59.824219 
Q 541.945044 59.824219 541.945044 58.324219 
L 541.945044 26.048437 
Q 541.945044 24.548437 540.445044 24.548437 
L 430.146997 24.548437 
Q 428.646997 24.548437 428.646997 26.048437 
L 428.646997 58.324219 
Q 428.646997 59.824219 430.146997 59.824219 
z
" style="fill: #ffffff; opacity: 0.8; stroke: #cccccc; stroke-linejoin: miter"/>
    </g>
    <g id="line2d_38">
     <path d="M 431.646997 30.622266 
L 439.146997 30.622266 
L 446.646997 30.622266 
" style="fill: none; stroke: #243b3a; stroke-width: 2; stroke-linecap: round"/>
    </g>
    <g id="text_36">
     <!-- Aktual -->
     <g style="fill: #262626" transform="translate(452.646997 33.247266) scale(0.075 -0.075)">
      <use xlink:href="#DejaVuSans-41"/>
      <use xlink:href="#DejaVuSans-6b" transform="translate(68.408203 0)"/>
      <use xlink:href="#DejaVuSans-74" transform="translate(126.318359 0)"/>
      <use xlink:href="#DejaVuSans-75" transform="translate(165.527344 0)"/>
      <use xlink:href="#DejaVuSans-61" transform="translate(228.90625 0)"/>
      <use xlink:href="#DejaVuSans-6c" transform="translate(290.185547 0)"/>
     </g>
    </g>
    <g id="line2d_39">
     <path d="M 431.646997 41.630859 
L 439.146997 41.630859 
L 446.646997 41.630859 
" style="fill: none; stroke-dasharray: 5.55,2.4; stroke-dashoffset: 0; stroke: #c0392b; stroke-width: 1.5"/>
    </g>
    <g id="text_37">
     <!-- Langsung (top-down) -->
     <g style="fill: #262626" transform="translate(452.646997 44.255859) scale(0.075 -0.075)">
      <use xlink:href="#DejaVuSans-4c"/>
      <use xlink:href="#DejaVuSans-61" transform="translate(55.712891 0)"/>
      <use xlink:href="#DejaVuSans-6e" transform="translate(116.992188 0)"/>
      <use xlink:href="#DejaVuSans-67" transform="translate(180.371094 0)"/>
      <use xlink:href="#DejaVuSans-73" transform="translate(243.847656 0)"/>
      <use xlink:href="#DejaVuSans-75" transform="translate(295.947266 0)"/>
      <use xlink:href="#DejaVuSans-6e" transform="translate(359.326172 0)"/>
      <use xlink:href="#DejaVuSans-67" transform="translate(422.705078 0)"/>
      <use xlink:href="#DejaVuSans-20" transform="translate(486.181641 0)"/>
      <use xlink:href="#DejaVuSans-28" transform="translate(517.96875 0)"/>
      <use xlink:href="#DejaVuSans-74" transform="translate(556.982422 0)"/>
      <use xlink:href="#DejaVuSans-6f" transform="translate(596.191406 0)"/>
      <use xlink:href="#DejaVuSans-70" transform="translate(657.373047 0)"/>
      <use xlink:href="#DejaVuSans-2d" transform="translate(720.849609 0)"/>
      <use xlink:href="#DejaVuSans-64" transform="translate(756.933594 0)"/>
      <use xlink:href="#DejaVuSans-6f" transform="translate(820.410156 0)"/>
      <use xlink:href="#DejaVuSans-77" transform="translate(881.591797 0)"/>
      <use xlink:href="#DejaVuSans-6e" transform="translate(963.378906 0)"/>
      <use xlink:href="#DejaVuSans-29" transform="translate(1026.757812 0)"/>
     </g>
    </g>
    <g id="line2d_40">
     <path d="M 431.646997 52.639453 
L 439.146997 52.639453 
L 446.646997 52.639453 
" style="fill: none; stroke-dasharray: 1.5,2.475; stroke-dashoffset: 0; stroke: #3a8c7e; stroke-width: 1.5"/>
    </g>
    <g id="text_38">
     <!-- Bottom-up (10 negara) -->
     <g style="fill: #262626" transform="translate(452.646997 55.264453) scale(0.075 -0.075)">
      <use xlink:href="#DejaVuSans-42"/>
      <use xlink:href="#DejaVuSans-6f" transform="translate(68.603516 0)"/>
      <use xlink:href="#DejaVuSans-74" transform="translate(129.785156 0)"/>
      <use xlink:href="#DejaVuSans-74" transform="translate(168.994141 0)"/>
      <use xlink:href="#DejaVuSans-6f" transform="translate(208.203125 0)"/>
      <use xlink:href="#DejaVuSans-6d" transform="translate(269.384766 0)"/>
      <use xlink:href="#DejaVuSans-2d" transform="translate(366.796875 0)"/>
      <use xlink:href="#DejaVuSans-75" transform="translate(402.880859 0)"/>
      <use xlink:href="#DejaVuSans-70" transform="translate(466.259766 0)"/>
      <use xlink:href="#DejaVuSans-20" transform="translate(529.736328 0)"/>
      <use xlink:href="#DejaVuSans-28" transform="translate(561.523438 0)"/>
      <use xlink:href="#DejaVuSans-31" transform="translate(600.537109 0)"/>
      <use xlink:href="#DejaVuSans-30" transform="translate(664.160156 0)"/>
      <use xlink:href="#DejaVuSans-20" transform="translate(727.783203 0)"/>
      <use xlink:href="#DejaVuSans-6e" transform="translate(759.570312 0)"/>
      <use xlink:href="#DejaVuSans-65" transform="translate(822.949219 0)"/>
      <use xlink:href="#DejaVuSans-67" transform="translate(884.472656 0)"/>
      <use xlink:href="#DejaVuSans-61" transform="translate(947.949219 0)"/>
      <use xlink:href="#DejaVuSans-72" transform="translate(1009.228516 0)"/>
      <use xlink:href="#DejaVuSans-61" transform="translate(1050.341797 0)"/>
      <use xlink:href="#DejaVuSans-29" transform="translate(1111.621094 0)"/>
     </g>
    </g>
   </g>
  </g>
  <g id="axes_3">
   <g id="patch_14">
    <path d="M 805.098994 238.440256 
L 1135.012487 238.440256 
L 1135.012487 20.798437 
L 805.098994 20.798437 
z
" style="fill: #ffffff"/>
   </g>
   <g id="matplotlib.axis_5">
    <g id="xtick_15">
     <g id="line2d_41">
      <path d="M 820.095062 238.440256 
L 820.095062 20.798437 
" clip-path="url(#p8c83aaa4c9)" style="fill: none; stroke: #cccccc; stroke-linecap: round"/>
     </g>
     <g id="text_39">
      <!-- 0 -->
      <g style="fill: #262626" transform="translate(816.595687 256.298537) scale(0.11 -0.11)">
       <use xlink:href="#DejaVuSans-30"/>
      </g>
     </g>
    </g>
    <g id="xtick_16">
     <g id="line2d_42">
      <path d="M 882.578678 238.440256 
L 882.578678 20.798437 
" clip-path="url(#p8c83aaa4c9)" style="fill: none; stroke: #cccccc; stroke-linecap: round"/>
     </g>
     <g id="text_40">
      <!-- 5 -->
      <g style="fill: #262626" transform="translate(879.079303 256.298537) scale(0.11 -0.11)">
       <use xlink:href="#DejaVuSans-35"/>
      </g>
     </g>
    </g>
    <g id="xtick_17">
     <g id="line2d_43">
      <path d="M 945.062294 238.440256 
L 945.062294 20.798437 
" clip-path="url(#p8c83aaa4c9)" style="fill: none; stroke: #cccccc; stroke-linecap: round"/>
     </g>
     <g id="text_41">
      <!-- 10 -->
      <g style="fill: #262626" transform="translate(938.063544 256.298537) scale(0.11 -0.11)">
       <use xlink:href="#DejaVuSans-31"/>
       <use xlink:href="#DejaVuSans-30" transform="translate(63.623047 0)"/>
      </g>
     </g>
    </g>
    <g id="xtick_18">
     <g id="line2d_44">
      <path d="M 1007.54591 238.440256 
L 1007.54591 20.798437 
" clip-path="url(#p8c83aaa4c9)" style="fill: none; stroke: #cccccc; stroke-linecap: round"/>
     </g>
     <g id="text_42">
      <!-- 15 -->
      <g style="fill: #262626" transform="translate(1000.54716 256.298537) scale(0.11 -0.11)">
       <use xlink:href="#DejaVuSans-31"/>
       <use xlink:href="#DejaVuSans-35" transform="translate(63.623047 0)"/>
      </g>
     </g>
    </g>
    <g id="xtick_19">
     <g id="line2d_45">
      <path d="M 1070.029526 238.440256 
L 1070.029526 20.798437 
" clip-path="url(#p8c83aaa4c9)" style="fill: none; stroke: #cccccc; stroke-linecap: round"/>
     </g>
     <g id="text_43">
      <!-- 20 -->
      <g style="fill: #262626" transform="translate(1063.030776 256.298537) scale(0.11 -0.11)">
       <use xlink:href="#DejaVuSans-32"/>
       <use xlink:href="#DejaVuSans-30" transform="translate(63.623047 0)"/>
      </g>
     </g>
    </g>
    <g id="xtick_20">
     <g id="line2d_46">
      <path d="M 1132.513142 238.440256 
L 1132.513142 20.798437 
" clip-path="url(#p8c83aaa4c9)" style="fill: none; stroke: #cccccc; stroke-linecap: round"/>
     </g>
     <g id="text_44">
      <!-- 25 -->
      <g style="fill: #262626" transform="translate(1125.514392 256.298537) scale(0.11 -0.11)">
       <use xlink:href="#DejaVuSans-32"/>
       <use xlink:href="#DejaVuSans-35" transform="translate(63.623047 0)"/>
      </g>
     </g>
    </g>
    <g id="text_45">
     <!-- Fold -->
     <g style="fill: #262626" transform="translate(957.675115 271.704318) scale(0.12 -0.12)">
      <use xlink:href="#DejaVuSans-46"/>
      <use xlink:href="#DejaVuSans-6f" transform="translate(53.894531 0)"/>
      <use xlink:href="#DejaVuSans-6c" transform="translate(115.076172 0)"/>
      <use xlink:href="#DejaVuSans-64" transform="translate(142.859375 0)"/>
     </g>
    </g>
   </g>
   <g id="matplotlib.axis_6">
    <g id="ytick_15">
     <g id="line2d_47">
      <path d="M 805.098994 216.087881 
L 1135.012487 216.087881 
" clip-path="url(#p8c83aaa4c9)" style="fill: none; stroke: #cccccc; stroke-linecap: round"/>
     </g>
     <g id="text_46">
      <!-- 5000 -->
      <g style="fill: #262626" transform="translate(767.603994 220.267022) scale(0.11 -0.11)">
       <use xlink:href="#DejaVuSans-35"/>
       <use xlink:href="#DejaVuSans-30" transform="translate(63.623047 0)"/>
       <use xlink:href="#DejaVuSans-30" transform="translate(127.246094 0)"/>
       <use xlink:href="#DejaVuSans-30" transform="translate(190.869141 0)"/>
      </g>
     </g>
    </g>
    <g id="ytick_16">
     <g id="line2d_48">
      <path d="M 805.098994 184.877021 
L 1135.012487 184.877021 
" clip-path="url(#p8c83aaa4c9)" style="fill: none; stroke: #cccccc; stroke-linecap: round"/>
     </g>
     <g id="text_47">
      <!-- 5500 -->
      <g style="fill: #262626" transform="translate(767.603994 189.056161) scale(0.11 -0.11)">
       <use xlink:href="#DejaVuSans-35"/>
       <use xlink:href="#DejaVuSans-35" transform="translate(63.623047 0)"/>
       <use xlink:href="#DejaVuSans-30" transform="translate(127.246094 0)"/>
       <use xlink:href="#DejaVuSans-30" transform="translate(190.869141 0)"/>
      </g>
     </g>
    </g>
    <g id="ytick_17">
     <g id="line2d_49">
      <path d="M 805.098994 153.666161 
L 1135.012487 153.666161 
" clip-path="url(#p8c83aaa4c9)" style="fill: none; stroke: #cccccc; stroke-linecap: round"/>
     </g>
     <g id="text_48">
      <!-- 6000 -->
      <g style="fill: #262626" transform="translate(767.603994 157.845301) scale(0.11 -0.11)">
       <use xlink:href="#DejaVuSans-36"/>
       <use xlink:href="#DejaVuSans-30" transform="translate(63.623047 0)"/>
       <use xlink:href="#DejaVuSans-30" transform="translate(127.246094 0)"/>
       <use xlink:href="#DejaVuSans-30" transform="translate(190.869141 0)"/>
      </g>
     </g>
    </g>
    <g id="ytick_18">
     <g id="line2d_50">
      <path d="M 805.098994 122.4553 
L 1135.012487 122.4553 
" clip-path="url(#p8c83aaa4c9)" style="fill: none; stroke: #cccccc; stroke-linecap: round"/>
     </g>
     <g id="text_49">
      <!-- 6500 -->
      <g style="fill: #262626" transform="translate(767.603994 126.634441) scale(0.11 -0.11)">
       <use xlink:href="#DejaVuSans-36"/>
       <use xlink:href="#DejaVuSans-35" transform="translate(63.623047 0)"/>
       <use xlink:href="#DejaVuSans-30" transform="translate(127.246094 0)"/>
       <use xlink:href="#DejaVuSans-30" transform="translate(190.869141 0)"/>
      </g>
     </g>
    </g>
    <g id="ytick_19">
     <g id="line2d_51">
      <path d="M 805.098994 91.24444 
L 1135.012487 91.24444 
" clip-path="url(#p8c83aaa4c9)" style="fill: none; stroke: #cccccc; stroke-linecap: round"/>
     </g>
     <g id="text_50">
      <!-- 7000 -->
      <g style="fill: #262626" transform="translate(767.603994 95.423581) scale(0.11 -0.11)">
       <use xlink:href="#DejaVuSans-37"/>
       <use xlink:href="#DejaVuSans-30" transform="translate(63.623047 0)"/>
       <use xlink:href="#DejaVuSans-30" transform="translate(127.246094 0)"/>
       <use xlink:href="#DejaVuSans-30" transform="translate(190.869141 0)"/>
      </g>
     </g>
    </g>
    <g id="ytick_20">
     <g id="line2d_52">
      <path d="M 805.098994 60.03358 
L 1135.012487 60.03358 
" clip-path="url(#p8c83aaa4c9)" style="fill: none; stroke: #cccccc; stroke-linecap: round"/>
     </g>
     <g id="text_51">
      <!-- 7500 -->
      <g style="fill: #262626" transform="translate(767.603994 64.212721) scale(0.11 -0.11)">
       <use xlink:href="#DejaVuSans-37"/>
       <use xlink:href="#DejaVuSans-35" transform="translate(63.623047 0)"/>
       <use xlink:href="#DejaVuSans-30" transform="translate(127.246094 0)"/>
       <use xlink:href="#DejaVuSans-30" transform="translate(190.869141 0)"/>
      </g>
     </g>
    </g>
    <g id="ytick_21">
     <g id="line2d_53">
      <path d="M 805.098994 28.82272 
L 1135.012487 28.82272 
" clip-path="url(#p8c83aaa4c9)" style="fill: none; stroke: #cccccc; stroke-linecap: round"/>
     </g>
     <g id="text_52">
      <!-- 8000 -->
      <g style="fill: #262626" transform="translate(767.603994 33.00186) scale(0.11 -0.11)">
       <use xlink:href="#DejaVuSans-38"/>
       <use xlink:href="#DejaVuSans-30" transform="translate(63.623047 0)"/>
       <use xlink:href="#DejaVuSans-30" transform="translate(127.246094 0)"/>
       <use xlink:href="#DejaVuSans-30" transform="translate(190.869141 0)"/>
      </g>
     </g>
    </g>
   </g>
   <g id="line2d_54">
    <path d="M 820.095062 220.694916 
L 832.591785 215.945622 
L 845.088508 211.994327 
L 857.585232 207.561511 
L 870.081955 202.756037 
L 882.578678 197.661176 
L 895.075401 192.061074 
L 907.572124 186.045805 
L 920.068848 178.505698 
L 932.565571 170.60573 
L 945.062294 162.286288 
L 957.559017 151.792697 
L 970.05574 140.550795 
L 982.552464 130.25271 
L 995.049187 120.575408 
L 1007.54591 112.664578 
L 1020.042633 105.754494 
L 1032.539356 98.203214 
L 1045.03608 90.432271 
L 1057.532803 83.413448 
L 1070.029526 77.853296 
L 1082.526249 74.486081 
L 1095.022972 69.920868 
L 1107.519696 63.841055 
L 1120.016419 57.929219 
" clip-path="url(#p8c83aaa4c9)" style="fill: none; stroke: #243b3a; stroke-width: 2; stroke-linecap: round"/>
   </g>
   <g id="line2d_55">
    <path d="M 820.095062 228.547446 
L 832.591785 218.480554 
L 845.088508 208.158319 
L 857.585232 203.507806 
L 870.081955 196.445049 
L 882.578678 189.426101 
L 895.075401 178.666332 
L 907.572124 173.045514 
L 920.068848 185.153459 
L 932.565571 173.558125 
L 945.062294 171.455789 
L 957.559017 166.976844 
L 970.05574 166.922619 
L 982.552464 156.333704 
L 995.049187 144.798008 
L 1007.54591 134.344047 
L 1020.042633 117.601893 
L 1032.539356 106.952477 
L 1045.03608 99.88939 
L 1057.532803 84.161859 
L 1070.029526 77.003595 
L 1082.526249 45.899663 
L 1095.022972 36.814849 
L 1107.519696 38.151453 
L 1120.016419 34.52506 
" clip-path="url(#p8c83aaa4c9)" style="fill: none; stroke-dasharray: 5.55,2.4; stroke-dashoffset: 0; stroke: #c0392b; stroke-width: 1.5"/>
   </g>
   <g id="line2d_56">
    <path d="M 820.095062 226.252315 
L 832.591785 216.096775 
L 845.088508 205.67168 
L 857.585232 200.98268 
L 870.081955 193.825183 
L 882.578678 187.155691 
L 895.075401 176.025721 
L 907.572124 170.065485 
L 920.068848 182.307033 
L 932.565571 171.24071 
L 945.062294 168.999421 
L 957.559017 164.360564 
L 970.05574 164.629907 
L 982.552464 153.911054 
L 995.049187 142.476267 
L 1007.54591 132.071411 
L 1020.042633 114.965769 
L 1032.539356 104.50163 
L 1045.03608 96.954394 
L 1057.532803 81.562193 
L 1070.029526 74.384642 
L 1082.526249 42.319413 
L 1095.022972 32.906512 
L 1107.519696 34.809723 
L 1120.016419 30.691247 
" clip-path="url(#p8c83aaa4c9)" style="fill: none; stroke-dasharray: 1.5,2.475; stroke-dashoffset: 0; stroke: #3a8c7e; stroke-width: 1.5"/>
   </g>
   <g id="patch_15">
    <path d="M 805.098994 238.440256 
L 805.098994 20.798438 
" style="fill: none; stroke: #cccccc; stroke-width: 1.25; stroke-linejoin: miter; stroke-linecap: square"/>
   </g>
   <g id="patch_16">
    <path d="M 1135.012487 238.440256 
L 1135.012487 20.798438 
" style="fill: none; stroke: #cccccc; stroke-width: 1.25; stroke-linejoin: miter; stroke-linecap: square"/>
   </g>
   <g id="patch_17">
    <path d="M 805.098994 238.440256 
L 1135.012487 238.440256 
" style="fill: none; stroke: #cccccc; stroke-width: 1.25; stroke-linejoin: miter; stroke-linecap: square"/>
   </g>
   <g id="patch_18">
    <path d="M 805.098994 20.798437 
L 1135.012487 20.798437 
" style="fill: none; stroke: #cccccc; stroke-width: 1.25; stroke-linejoin: miter; stroke-linecap: square"/>
   </g>
   <g id="text_53">
    <!-- Jumlah 10 tahun ke depan — h=10 -->
    <g style="fill: #262626" transform="translate(882.322928 14.798437) scale(0.1 -0.1)">
     <use xlink:href="#DejaVuSans-4a"/>
     <use xlink:href="#DejaVuSans-75" transform="translate(29.492188 0)"/>
     <use xlink:href="#DejaVuSans-6d" transform="translate(92.871094 0)"/>
     <use xlink:href="#DejaVuSans-6c" transform="translate(190.283203 0)"/>
     <use xlink:href="#DejaVuSans-61" transform="translate(218.066406 0)"/>
     <use xlink:href="#DejaVuSans-68" transform="translate(279.345703 0)"/>
     <use xlink:href="#DejaVuSans-20" transform="translate(342.724609 0)"/>
     <use xlink:href="#DejaVuSans-31" transform="translate(374.511719 0)"/>
     <use xlink:href="#DejaVuSans-30" transform="translate(438.134766 0)"/>
     <use xlink:href="#DejaVuSans-20" transform="translate(501.757812 0)"/>
     <use xlink:href="#DejaVuSans-74" transform="translate(533.544922 0)"/>
     <use xlink:href="#DejaVuSans-61" transform="translate(572.753906 0)"/>
     <use xlink:href="#DejaVuSans-68" transform="translate(634.033203 0)"/>
     <use xlink:href="#DejaVuSans-75" transform="translate(697.412109 0)"/>
     <use xlink:href="#DejaVuSans-6e" transform="translate(760.791016 0)"/>
     <use xlink:href="#DejaVuSans-20" transform="translate(824.169922 0)"/>
     <use xlink:href="#DejaVuSans-6b" transform="translate(855.957031 0)"/>
     <use xlink:href="#DejaVuSans-65" transform="translate(910.242188 0)"/>
     <use xlink:href="#DejaVuSans-20" transform="translate(971.765625 0)"/>
     <use xlink:href="#DejaVuSans-64" transform="translate(1003.552734 0)"/>
     <use xlink:href="#DejaVuSans-65" transform="translate(1067.029297 0)"/>
     <use xlink:href="#DejaVuSans-70" transform="translate(1128.552734 0)"/>
     <use xlink:href="#DejaVuSans-61" transform="translate(1192.029297 0)"/>
     <use xlink:href="#DejaVuSans-6e" transform="translate(1253.308594 0)"/>
     <use xlink:href="#DejaVuSans-20" transform="translate(1316.6875 0)"/>
     <use xlink:href="#DejaVuSans-2014" transform="translate(1348.474609 0)"/>
     <use xlink:href="#DejaVuSans-20" transform="translate(1448.474609 0)"/>
     <use xlink:href="#DejaVuSans-68" transform="translate(1480.261719 0)"/>
     <use xlink:href="#DejaVuSans-3d" transform="translate(1543.640625 0)"/>
     <use xlink:href="#DejaVuSans-31" transform="translate(1627.429688 0)"/>
     <use xlink:href="#DejaVuSans-30" transform="translate(1691.052734 0)"/>
    </g>
   </g>
   <g id="legend_3">
    <g id="patch_19">
     <path d="M 810.348994 59.824219 
L 920.647041 59.824219 
Q 922.147041 59.824219 922.147041 58.324219 
L 922.147041 26.048437 
Q 922.147041 24.548437 920.647041 24.548437 
L 810.348994 24.548437 
Q 808.848994 24.548437 808.848994 26.048437 
L 808.848994 58.324219 
Q 808.848994 59.824219 810.348994 59.824219 
z
" style="fill: #ffffff; opacity: 0.8; stroke: #cccccc; stroke-linejoin: miter"/>
    </g>
    <g id="line2d_57">
     <path d="M 811.848994 30.622266 
L 819.348994 30.622266 
L 826.848994 30.622266 
" style="fill: none; stroke: #243b3a; stroke-width: 2; stroke-linecap: round"/>
    </g>
    <g id="text_54">
     <!-- Aktual -->
     <g style="fill: #262626" transform="translate(832.848994 33.247266) scale(0.075 -0.075)">
      <use xlink:href="#DejaVuSans-41"/>
      <use xlink:href="#DejaVuSans-6b" transform="translate(68.408203 0)"/>
      <use xlink:href="#DejaVuSans-74" transform="translate(126.318359 0)"/>
      <use xlink:href="#DejaVuSans-75" transform="translate(165.527344 0)"/>
      <use xlink:href="#DejaVuSans-61" transform="translate(228.90625 0)"/>
      <use xlink:href="#DejaVuSans-6c" transform="translate(290.185547 0)"/>
     </g>
    </g>
    <g id="line2d_58">
     <path d="M 811.848994 41.630859 
L 819.348994 41.630859 
L 826.848994 41.630859 
" style="fill: none; stroke-dasharray: 5.55,2.4; stroke-dashoffset: 0; stroke: #c0392b; stroke-width: 1.5"/>
    </g>
    <g id="text_55">
     <!-- Langsung (top-down) -->
     <g style="fill: #262626" transform="translate(832.848994 44.255859) scale(0.075 -0.075)">
      <use xlink:href="#DejaVuSans-4c"/>
      <use xlink:href="#DejaVuSans-61" transform="translate(55.712891 0)"/>
      <use xlink:href="#DejaVuSans-6e" transform="translate(116.992188 0)"/>
      <use xlink:href="#DejaVuSans-67" transform="translate(180.371094 0)"/>
      <use xlink:href="#DejaVuSans-73" transform="translate(243.847656 0)"/>
      <use xlink:href="#DejaVuSans-75" transform="translate(295.947266 0)"/>
      <use xlink:href="#DejaVuSans-6e" transform="translate(359.326172 0)"/>
      <use xlink:href="#DejaVuSans-67" transform="translate(422.705078 0)"/>
      <use xlink:href="#DejaVuSans-20" transform="translate(486.181641 0)"/>
      <use xlink:href="#DejaVuSans-28" transform="translate(517.96875 0)"/>
      <use xlink:href="#DejaVuSans-74" transform="translate(556.982422 0)"/>
      <use xlink:href="#DejaVuSans-6f" transform="translate(596.191406 0)"/>
      <use xlink:href="#DejaVuSans-70" transform="translate(657.373047 0)"/>
      <use xlink:href="#DejaVuSans-2d" transform="translate(720.849609 0)"/>
      <use xlink:href="#DejaVuSans-64" transform="translate(756.933594 0)"/>
      <use xlink:href="#DejaVuSans-6f" transform="translate(820.410156 0)"/>
      <use xlink:href="#DejaVuSans-77" transform="translate(881.591797 0)"/>
      <use xlink:href="#DejaVuSans-6e" transform="translate(963.378906 0)"/>
      <use xlink:href="#DejaVuSans-29" transform="translate(1026.757812 0)"/>
     </g>
    </g>
    <g id="line2d_59">
     <path d="M 811.848994 52.639453 
L 819.348994 52.639453 
L 826.848994 52.639453 
" style="fill: none; stroke-dasharray: 1.5,2.475; stroke-dashoffset: 0; stroke: #3a8c7e; stroke-width: 1.5"/>
    </g>
    <g id="text_56">
     <!-- Bottom-up (10 negara) -->
     <g style="fill: #262626" transform="translate(832.848994 55.264453) scale(0.075 -0.075)">
      <use xlink:href="#DejaVuSans-42"/>
      <use xlink:href="#DejaVuSans-6f" transform="translate(68.603516 0)"/>
      <use xlink:href="#DejaVuSans-74" transform="translate(129.785156 0)"/>
      <use xlink:href="#DejaVuSans-74" transform="translate(168.994141 0)"/>
      <use xlink:href="#DejaVuSans-6f" transform="translate(208.203125 0)"/>
      <use xlink:href="#DejaVuSans-6d" transform="translate(269.384766 0)"/>
      <use xlink:href="#DejaVuSans-2d" transform="translate(366.796875 0)"/>
      <use xlink:href="#DejaVuSans-75" transform="translate(402.880859 0)"/>
      <use xlink:href="#DejaVuSans-70" transform="translate(466.259766 0)"/>
      <use xlink:href="#DejaVuSans-20" transform="translate(529.736328 0)"/>
      <use xlink:href="#DejaVuSans-28" transform="translate(561.523438 0)"/>
      <use xlink:href="#DejaVuSans-31" transform="translate(600.537109 0)"/>
      <use xlink:href="#DejaVuSans-30" transform="translate(664.160156 0)"/>
      <use xlink:href="#DejaVuSans-20" transform="translate(727.783203 0)"/>
      <use xlink:href="#DejaVuSans-6e" transform="translate(759.570312 0)"/>
      <use xlink:href="#DejaVuSans-65" transform="translate(822.949219 0)"/>
      <use xlink:href="#DejaVuSans-67" transform="translate(884.472656 0)"/>
      <use xlink:href="#DejaVuSans-61" transform="translate(947.949219 0)"/>
      <use xlink:href="#DejaVuSans-72" transform="translate(1009.228516 0)"/>
      <use xlink:href="#DejaVuSans-61" transform="translate(1050.341797 0)"/>
      <use xlink:href="#DejaVuSans-29" transform="translate(1111.621094 0)"/>
     </g>
    </g>
   </g>
  </g>
 </g>
 <defs>
  <clipPath id="p9641202daf">
   <rect x="44.695" y="20.798437" width="329.913493" height="217.641818"/>
  </clipPath>
  <clipPath id="p6369e7620e">
   <rect x="424.896997" y="20.798437" width="329.913493" height="217.641818"/>
  </clipPath>
  <clipPath id="p8c83aaa4c9">
   <rect x="805.098994" y="20.798437" width="329.913493" height="217.641818"/>
  </clipPath>
 </defs>
</svg>
